<svg width="88" height="30" viewBox="0 0 88 30" fill="none" xmlns="http://www.w3.org/2000/svg">
<g clip-path="url(#clip0_232_128)">
<path d="M7.56024 23.5311H16.1722L15.4035 29.4743H0L3.31465 2.50635H10.1478L7.56024 23.5311Z" fill="#ED6F21"/>
<path d="M25.3082 29.4742H18.6372L20.8616 11.4012H27.5322L25.3082 29.4742ZM28.9878 4.5688C28.9878 6.79211 27.2492 8.57167 25.0669 8.57167C22.8845 8.57167 21.1043 6.79211 21.1043 4.5688C21.1043 2.34549 22.9231 0.646484 25.1471 0.646484C27.3711 0.646484 28.9874 2.38577 28.9874 4.5688H28.9878Z" fill="#ED6F21"/>
<path d="M52.9643 29.4742H44.7159L42.9773 27.0481C42.088 25.7544 41.7231 25.1884 41.1988 24.2588C40.43 25.2696 39.7015 26.1186 38.6512 27.2509L36.5476 29.4742H28.0176L37.316 19.9327L30.7659 11.4012H39.0946L40.4297 13.5041C41.2786 14.7979 41.4814 15.2024 41.8849 16.0514C42.4509 15.1347 43.0845 14.2856 43.7857 13.5041L45.6447 11.4012H54.3369L45.7249 20.0945L52.9633 29.4742H52.9643Z" fill="#ED6F21"/>
<path d="M60.9299 21.7925C60.9299 23.1669 61.0906 23.8141 61.5764 24.3801C62.1424 24.9454 63.0719 25.3096 64.0834 25.3096C65.539 25.3096 66.388 24.7034 66.6293 23.4495H73.9083C73.1395 25.4711 72.493 26.4819 71.401 27.533C69.6225 29.1507 67.0752 29.9997 63.9615 29.9997C58.0996 29.9997 54.5825 26.6843 54.5825 21.1852C54.5825 18.4362 55.6325 15.7271 57.4114 13.867C59.3125 11.8864 61.9803 10.876 65.256 10.876C71.0374 10.876 74.5146 14.3528 74.5146 20.1342C74.5146 20.4172 74.4743 21.0644 74.434 21.7922H60.9299V21.7925ZM67.6811 18.0317C67.5606 16.2129 66.5088 15.2424 64.73 15.2424C62.9511 15.2424 61.7789 16.1719 61.3736 18.0317H67.6811Z" fill="#ED6F21"/>
<path d="M83.9734 29.4743H77.3027L80.9403 0H87.6131L83.9737 29.4743H83.9734Z" fill="#ED6F21"/>
</g>
<defs>
<clipPath id="clip0_232_128">
<rect width="87.6131" height="30" fill="white"/>
</clipPath>
</defs>
</svg>
